<?xml version="1.0" encoding="UTF-8"?>
<svg id="Layer_2" data-name="Layer 2" xmlns="http://www.w3.org/2000/svg" xmlns:xlink="http://www.w3.org/1999/xlink" viewBox="0 0 873.94 902.86">
  <defs>
    <style>
      .cls-1 {
        fill: #107354;
      }

      .cls-2 {
        fill: url(#linear-gradient-2);
      }

      .cls-3 {
        fill: url(#linear-gradient-4);
      }

      .cls-4 {
        fill: url(#linear-gradient-3);
      }

      .cls-5 {
        fill: url(#linear-gradient);
      }
    </style>
    <linearGradient id="linear-gradient" x1="681.58" y1="192.22" x2="850.64" y2="396.98" gradientUnits="userSpaceOnUse">
      <stop offset="0" stop-color="#fecd76"/>
      <stop offset=".35" stop-color="#f4a948"/>
      <stop offset=".79" stop-color="#e98014"/>
      <stop offset="1" stop-color="#e57100"/>
    </linearGradient>
    <linearGradient id="linear-gradient-2" x1="193.09" y1="203.46" x2="44.23" y2="418.97" gradientUnits="userSpaceOnUse">
      <stop offset="0" stop-color="#fecd76"/>
      <stop offset="1" stop-color="#e57100"/>
    </linearGradient>
    <linearGradient id="linear-gradient-3" x1="771.25" y1="459.53" x2="542.18" y2="774.73" xlink:href="#linear-gradient-2"/>
    <linearGradient id="linear-gradient-4" x1="299.03" y1="527.67" x2="503.92" y2="599.78" gradientUnits="userSpaceOnUse">
      <stop offset=".7" stop-color="#fecd76"/>
      <stop offset=".81" stop-color="#107354"/>
    </linearGradient>
  </defs>
  <g id="Layer_1-2" data-name="Layer 1">
    <path class="cls-5" d="M484.95,20.14s252,30,297,291l-29,47s-13-223-234-290l-34-48Z"/>
    <path class="cls-1" d="M107.95,554.14s35,134,158,230c0,0-9-35,10-53,0,0-13.95-9.89-18.92-20.05,0,0,72.22-18.38,72.65-84.54s-89.3-83.03-89.3-83.03c0,0-222.7-58.16-239.14-230.7,0,0-32.43,188.97,233.51,268.11,0,0,76.11,18.59,39.78,67.89,0,0-17.73,23.78-52.76,20.32,0,0-32.43-35.46-51.46-85.62,0,0-36.97-8.59-62.38-29.38Z"/>
    <path class="cls-1" d="M437.57,227.3l-22.05,35.35-72.65-73.51c-22.05,17.95-31.78,51.78-31.78,51.78l75.24,75.24-17.84,31.46-72-71.03c-15.24,25.62-16.86,65.19-16.86,65.19l110.3,109.95v54.49l-105.43-112.38c1.95,92.92,100.22,154.64,100.22,154.64,0,41.28-27.24,69.64-27.24,69.64.97-74.92-74.92-90.49-74.92-90.49C-66.75,425.46,53.9,169.57,53.9,169.57c-36.66,263.3,215.69,307.84,215.69,307.84-75.89-136.22,14.27-277.3,55.78-329.84S437.57,0,437.57,0c5.5,20.76,115.15,152.76,115.15,152.76,140.43,194.31,51.57,325.95,51.57,325.95,272.7-75.28,215.65-309.14,215.65-309.14,0,0,115.81,242.43-211.11,349.68,0,0-100.55,35.3-156.01,129.68,0,0-10.76,25.73-108.32,95.14-3.46,2.46-42.93,40.72-26.81,89.08,2.81,8.43-30.04-27.76-28.32-58.16.62-11.05-.22-22.92,12.54-45.41,3.06-5.4,28.75-34.23,32-37.84,5.07-5.62,30.88-32.16,55.35-76.11,35.02-62.88,35.76-169.91,26.76-232.54-.09-.63-36.35,6.99-42.89,8.51-.81.19,58.12-97.96,62.92-117.16.32-1.3,64.05,117.24,63.32,117.08-8.83-1.96-44.78-11.07-44.84-9.24-.49,15.81-.16,115.44-1,128.05-4.32,65.3-28.15,102.5-33.51,112.65-24.22,45.84-78.07,96.5-77.41,96.43,7.17-.72,15.28-6.04,23.08-11.03,70.32-44.97,102.34-117.72,107.98-138.83,1.07-4,3.48-7.5,6.79-9.98,22.99-17.18,107.21-85.51,108.89-165.74l-105.43,112.38v-54.49l110.3-109.95s-1.62-39.57-16.86-65.19l-72,71.03-17.84-31.46,75.24-75.24s-9.73-33.84-31.78-51.78l-72.65,73.51-20.74-35.35M509.26,159.89l-54.81-62.92v115.46l54.81-52.54ZM418,213.49v-115.46l-54.81,62.92,54.81,52.54Z"/>
    <path class="cls-2" d="M388.95,20.14S136.95,50.14,91.95,311.14l29,47s13-223,234-290l34-48Z"/>
    <path class="cls-4" d="M873.15,312.81s1.95,141.57-216.65,225.89c0,0-30.49,25.95-48,64.86,0,0,76.43-45.78,124.11-61.35,0,0,153.62-62.49,140.54-229.41Z"/>
    <path class="cls-1" d="M703.75,584.38s62.27-33.08,62.27-31.14-59.73,223.78-329.21,349.62l-82.03-49.3s-41.51-40.22,0-84.32c0,0,107.68-59.57,169.95-165.68,0,0,9.08-15.46,77.84-50.41,0,0-32.43,76.62-68.11,114.24l120,.65s32.43-38.27,49.3-83.68ZM388.99,798.59c-12,7.95-7.62,16.05-7.62,16.05l55.43,33.73c114.46-58.76,171.7-133.62,171.7-133.62h-118.81c-13.95,27.57-88.7,75.89-100.7,83.84Z"/>
    <path class="cls-3" d="M501.92,587.57s-11.7,10.27-20.42,21.49c-9.77,12.57-20.29,25.46-29.04,40.34,0,0-10.76,25.73-108.32,95.14-3.46,2.46-42.93,40.72-26.81,89.08,2.81,8.43-30.04-27.76-28.32-58.16.62-11.05-.22-22.92,12.54-45.41,3.06-5.4,28.75-34.23,32-37.84,5.07-5.62,30.88-32.16,55.35-76.11,35.02-62.88,35.76-169.91,26.76-232.54-.09-.63-36.35,6.99-42.89,8.51-.81.19,58.12-97.96,62.92-117.16.32-1.3,64.05,117.24,63.32,117.08-8.83-1.96-44.78-11.07-44.84-9.24-.49,15.81-.16,115.44-1,128.05-4.32,65.3-28.15,102.5-33.51,112.65-24.22,45.84-78.07,96.5-77.41,96.43,7.17-.72,15.28-6.04,23.08-11.03,70.32-44.97,102.34-117.72,107.98-138.83,1.07-4,3.58-7.71,3.58-7.71l25.06,25.22"/>
  </g>
</svg>